<svg
  width="610"
  height="689"
  viewBox="0 0 610 689"
  fill="none"
  xmlns="http://www.w3.org/2000/svg"
>
  <path
    d="M148.039 310.656V267.503C148.039 265.092 147.684 263.163 146.974 261.717C146.319 260.217 144.763 259.467 142.306 259.467H140.913V257.619H148.94C150.851 257.619 152.326 257.887 153.363 258.422C154.455 258.958 155.22 259.949 155.657 261.396C156.093 262.788 156.312 264.824 156.312 267.503V281.646H180.229V257.619H188.42V300.772C188.42 303.182 188.748 305.138 189.403 306.638C190.113 308.084 191.696 308.808 194.154 308.808H195.628V310.656H187.601C185.69 310.656 184.188 310.415 183.096 309.933C182.059 309.397 181.321 308.406 180.885 306.959C180.448 305.513 180.229 303.45 180.229 300.772V284.941H156.312V310.656H148.039Z"
    fill="#04D484"
    fill-opacity="0.5"
  />
  <path
    d="M198.957 310.656L221.768 257.689H222.197L245.008 310.656H236.355L219.766 269.194L225.129 265.757L206.394 310.656H198.957ZM212.758 291.574H231.35L233.924 297.888H210.541L212.758 291.574Z"
    fill="#04D484"
    fill-opacity="0.5"
  />
  <path
    d="M286.413 303.5H303.933V310.656H276.474L286.413 303.5ZM248.657 285.26C248.657 281.752 249.325 278.431 250.66 275.298C252.042 272.164 253.949 269.405 256.38 267.019C258.812 264.587 261.624 262.693 264.818 261.337C268.012 259.934 271.421 259.232 275.044 259.232C278.667 259.232 282.075 259.934 285.269 261.337C288.511 262.693 291.347 264.587 293.779 267.019C296.258 269.405 298.188 272.164 299.571 275.298C300.953 278.431 301.645 281.752 301.645 285.26C301.645 288.861 300.953 292.228 299.571 295.362C298.188 298.496 296.258 301.255 293.779 303.64C291.347 306.026 288.511 307.896 285.269 309.253C282.075 310.562 278.667 311.217 275.044 311.217C271.421 311.217 268.012 310.562 264.818 309.253C261.624 307.896 258.812 306.049 256.38 303.711C253.949 301.372 252.042 298.636 250.66 295.502C249.325 292.322 248.657 288.908 248.657 285.26ZM256.38 285.33C256.38 288.744 257.214 291.878 258.883 294.731C260.552 297.584 262.816 299.852 265.676 301.536C268.537 303.219 271.731 304.061 275.258 304.061C278.738 304.061 281.885 303.219 284.697 301.536C287.51 299.852 289.75 297.584 291.419 294.731C293.087 291.878 293.922 288.721 293.922 285.26C293.922 282.687 293.421 280.279 292.42 278.034C291.467 275.742 290.132 273.754 288.416 272.071C286.699 270.34 284.697 268.984 282.409 268.002C280.168 267.019 277.737 266.528 275.115 266.528C271.588 266.528 268.394 267.394 265.533 269.124C262.721 270.808 260.48 273.076 258.811 275.929C257.191 278.782 256.38 281.916 256.38 285.33Z"
    fill="#04D484"
    fill-opacity="0.5"
  />
  <path
    d="M349.89 303.5H367.41V310.656H339.951L349.89 303.5ZM312.134 285.26C312.134 281.752 312.802 278.431 314.137 275.298C315.519 272.164 317.426 269.405 319.857 267.019C322.288 264.587 325.101 262.693 328.295 261.337C331.489 259.934 334.898 259.232 338.521 259.232C342.144 259.232 345.552 259.934 348.746 261.337C351.988 262.693 354.824 264.587 357.256 267.019C359.735 269.405 361.665 272.164 363.048 275.298C364.43 278.431 365.122 281.752 365.122 285.26C365.122 288.861 364.43 292.228 363.048 295.362C361.665 298.496 359.735 301.255 357.256 303.64C354.824 306.026 351.988 307.896 348.746 309.253C345.552 310.562 342.144 311.217 338.521 311.217C334.898 311.217 331.489 310.562 328.295 309.253C325.101 307.896 322.288 306.049 319.857 303.711C317.426 301.372 315.519 298.636 314.137 295.502C312.802 292.322 312.134 288.908 312.134 285.26ZM319.857 285.33C319.857 288.744 320.691 291.878 322.36 294.731C324.028 297.584 326.293 299.852 329.153 301.536C332.013 303.219 335.207 304.061 338.735 304.061C342.215 304.061 345.362 303.219 348.174 301.536C350.987 299.852 353.227 297.584 354.896 294.731C356.564 291.878 357.399 288.721 357.399 285.26C357.399 282.687 356.898 280.279 355.897 278.034C354.944 275.742 353.609 273.754 351.893 272.071C350.176 270.34 348.174 268.984 345.886 268.002C343.645 267.019 341.214 266.528 338.592 266.528C335.064 266.528 331.87 267.394 329.01 269.124C326.198 270.808 323.957 273.076 322.288 275.929C320.668 278.782 319.857 281.916 319.857 285.33Z"
    fill="#04D484"
    fill-opacity="0.5"
  />
  <path
    opacity="0.9"
    d="M81.524 404.14C80.0485 400.92 78.783 397.628 77.7353 394.284C43.9167 413.769 29.7934 441.606 37.979 472.684C40.126 478.942 43.4164 487.186 45.9659 493.318C31.8717 463.099 45.5756 425.905 81.524 404.14Z"
    fill="#04D484"
    fill-opacity="0.5"
  />
  <path
    opacity="0.9"
    d="M75.602 379.843C75.0943 376.21 74.7834 372.566 74.6706 368.926C45.9181 380.303 30.4841 401.497 31.1864 423.746L31.1984 424.097C31.4975 430.111 32.326 438.12 32.9494 444.135C29.3063 419.235 44.6972 393.933 75.602 379.843Z"
    fill="#04D484"
    fill-opacity="0.5"
  />
  <path
    opacity="0.9"
    d="M76.0987 352.863C76.4978 349.024 77.0746 345.146 77.8291 341.228C53.698 347.364 39.2158 361.046 36.0889 377.505L34.8555 384.495L33.2952 396.392C35.1647 377.59 50.1651 361.044 76.0987 352.863Z"
    fill="#04D484"
    fill-opacity="0.5"
  />
  <path
    opacity="0.9"
    d="M82.717 324.081C83.9525 320.091 85.3733 316.087 86.9796 312.072C66.8773 314.165 54.095 322.378 49.6486 333.993L45.0148 346.895L43.5612 351.464C47.6139 337.976 61.0761 327.717 82.717 324.081Z"
    fill="#04D484"
    fill-opacity="0.5"
  />
  <path
    opacity="0.9"
    d="M94.9308 294.191C96.9352 290.165 99.0949 286.142 101.41 282.124C84.8131 281.005 74.0296 285.125 69.6276 292.847C66.8687 297.666 63.493 304.263 60.8845 309.151C65.4948 299.984 77.0797 294.336 94.9308 294.191Z"
    fill="#04D484"
    fill-opacity="0.5"
  />
  <path
    opacity="0.9"
    d="M112.616 264.001C115.329 260.045 118.19 256.118 121.199 252.222C107.701 248.438 99.0705 249.37 95.5359 254.014C92.0014 258.659 87.7576 264.703 84.4343 269.277C88.3504 263.485 97.8746 261.331 112.616 264.001Z"
    fill="#04D484"
    fill-opacity="0.5"
  />
  <path
    opacity="0.9"
    d="M135.147 234.375C138.525 230.577 142.032 226.846 145.668 223.183C135.102 217.102 128.652 215.443 126.507 217.634L113.257 231.748C116.024 228.596 123.353 229.221 135.147 234.375Z"
    fill="#04D484"
    fill-opacity="0.5"
  />
  <path
    opacity="0.9"
    d="M174.644 195.734C166.748 187.394 162.751 183.537 162.361 183.801L159.687 185.922L146.967 196.7C148.105 195.657 153.13 198.626 162.207 206.063C166.25 202.588 170.395 199.145 174.644 195.734Z"
    fill="#04D484"
    fill-opacity="0.5"
  />
  <path
    opacity="0.9"
    d="M207.53 170.892C202.459 160.24 201.214 154.401 203.223 153.163L193.738 159.215L185.635 164.721C184.941 165.968 186.904 169.921 193.421 180.145C195.57 178.649 197.745 177.174 199.945 175.72C202.467 174.094 204.995 172.485 207.53 170.892Z"
    fill="#04D484"
    fill-opacity="0.5"
  />
  <path
    opacity="0.9"
    d="M246.431 127.84L229.839 136.07L227.997 137.021C224.401 138.944 223.88 145.833 227.217 157.823C232.051 155.268 236.888 152.854 241.729 150.58C239.709 137.658 241.6 130.068 246.431 127.84Z"
    fill="#04D484"
    fill-opacity="0.5"
  />
  <path
    opacity="0.9"
    d="M275.349 135.417C276.703 120.208 282.221 111.229 290.305 108.657C284.599 110.512 277.135 113.309 271.488 115.31C264.803 117.839 260.926 126.25 261.032 140.481C265.832 138.628 270.604 136.939 275.349 135.417Z"
    fill="#04D484"
    fill-opacity="0.5"
  />
  <path
    opacity="0.9"
    d="M307.956 125.473C313.147 107.893 322.993 97.9597 334.862 95.8424C329.125 96.868 321.557 98.6065 315.857 99.7999C305.668 102.197 297.747 111.8 294.19 128.328C298.835 127.243 303.423 126.291 307.956 125.473Z"
    fill="#04D484"
    fill-opacity="0.5"
  />
  <path
    opacity="0.9"
    d="M338.754 120.846C348.529 100.745 363.789 90.2894 379.975 89.9795C374.224 90.1012 366.61 90.6632 360.873 90.9883C338.733 93.3045 329.769 113.082 325.948 121.523C330.279 121.157 334.547 120.932 338.754 120.846Z"
    fill="#04D484"
    fill-opacity="0.5"
  />
  <path
    opacity="0.9"
    d="M355.335 120.05C359.252 120.384 363.132 120.879 366.975 121.534C382.458 98.6239 404.805 88.6142 425.909 92.2578L419.447 91.2444L406.432 89.8158C387.419 88.0361 368.249 98.361 355.335 120.05Z"
    fill="#04D484"
    fill-opacity="0.5"
  />
  <path
    opacity="0.9"
    d="M381.603 124.002C385.013 125.029 388.375 126.229 391.673 127.595C414.357 101.869 446.04 93.9784 471.698 104.789C467.697 103.129 462.248 101.222 458.171 99.7654L452.256 97.8738C428.441 90.5324 401.046 99.5422 381.603 124.002Z"
    fill="#04D484"
    fill-opacity="0.5"
  />
  <path
    opacity="0.9"
    d="M403.961 133.499C406.823 135.238 409.575 137.145 412.201 139.207C445.737 111.334 484.137 107.921 514.924 130.063C509.664 126.125 502.427 121.158 496.99 117.604C482.901 109.613 445.787 95.2211 403.961 133.499Z"
    fill="#04D484"
    fill-opacity="0.5"
  />
  <path
    opacity="0.9"
    d="M421.64 148.623L422.404 149.49C424.321 151.712 426.101 154.034 427.735 156.442C464.313 131.3 520.056 128.948 550.105 168.538C546.758 163.774 541.793 157.612 538.11 153.022L536.396 151.072C509.699 121.231 458.571 120.031 421.64 148.623Z"
    fill="#04D484"
    fill-opacity="0.5"
  />
  <path
    opacity="0.9"
    d="M433.812 169.384C435.183 172.455 436.354 175.592 437.318 178.776C478.281 156.957 532.951 163.856 559.429 194.172C564.911 200.384 568.973 207.563 571.333 215.213C569.369 209.257 566.332 201.42 564.041 195.597C561.644 190.315 558.432 185.358 554.515 180.897C527.976 150.524 473.962 145.395 433.812 169.384Z"
    fill="#04D484"
    fill-opacity="0.5"
  />
  <path
    opacity="0.9"
    d="M438.869 194.432C439.319 197.929 439.581 201.434 439.654 204.933C481.598 188.596 537.118 200.149 563.661 230.751C572.817 241.311 577.333 252.749 577.604 263.877L577.547 261.806C577.267 256.579 576.6 249.623 576.109 244.409C574.601 233.983 569.88 224.022 562.55 215.801C535.998 185.239 480.562 175.639 438.869 194.432Z"
    fill="#04D484"
    fill-opacity="0.5"
  />
  <path
    opacity="0.9"
    d="M561.541 254.261C534.944 223.489 479.451 209.003 437.582 221.883C437.165 225.599 436.571 229.356 435.798 233.154C477.248 222.871 532.471 239.506 559.007 270.221C570.685 283.729 574.921 297.723 572.495 310.038L574.01 301.629L575.329 291.868C576.645 279.788 572.255 266.66 561.541 254.261Z"
    fill="#04D484"
    fill-opacity="0.5"
  />
  <path
    opacity="0.9"
    d="M426.091 262.754C465.683 258.906 519.298 280.791 545.914 311.601C559.395 327.227 563.375 342.149 558.892 353.589L564.054 339.444L564.967 336.633C568.766 324.603 564.736 309.836 551.888 294.954C525.256 264.084 470.809 244.4 430.281 250.969C429.099 254.913 427.702 258.841 426.091 262.754Z"
    fill="#04D484"
    fill-opacity="0.5"
  />
  <path
    opacity="0.9"
    d="M525.24 353.889C539.984 370.992 544.172 385.635 538.829 394.848C541.594 390.126 544.954 383.654 547.573 378.85C562.792 343.424 482.631 283.132 417.54 281.157C415.532 285.113 413.37 289.065 411.056 293.014C447.436 295.673 498.523 322.952 525.24 353.889Z"
    fill="#04D484"
    fill-opacity="0.5"
  />
  <path
    opacity="0.9"
    d="M497.147 395.772C512.733 413.887 517.767 427.442 512.886 433.778C516.348 429.342 520.678 423.196 524.022 418.686C529.247 411.104 524.651 397.004 509.356 379.249C482.662 348.233 433.481 317.793 399.545 311.275C396.819 315.191 393.94 319.079 390.909 322.941C422.891 332.131 470.439 364.752 497.147 395.772Z"
    fill="#04D484"
    fill-opacity="0.5"
  />
  <path
    opacity="0.9"
    d="M376.736 340.603C373.328 344.396 369.797 348.122 366.141 351.782C392.601 367.355 435.716 405.174 462.47 436.288C478.58 455.028 485.087 467.054 481.905 470.252L495.256 456.17C499.288 451.603 493.433 438.948 477.512 420.428C450.702 389.299 405.585 353.569 376.736 340.603Z"
    fill="#04D484"
    fill-opacity="0.5"
  />
  <path
    opacity="0.9"
    d="M349.355 368.604C345.336 372.13 341.194 375.586 336.928 378.971C356.82 400.468 394.662 443.18 421.475 474.379C437.791 493.372 446.235 503.682 445.869 504.037L450.017 500.621L461.312 491.082C462.954 489.597 455.355 478.538 439.08 459.627C412.29 428.462 372.122 387.673 349.355 368.604Z"
    fill="#04D484"
    fill-opacity="0.5"
  />
  <path
    opacity="0.9"
    d="M317.91 394.43C316.201 395.607 314.481 396.772 312.748 397.925C309.805 399.868 306.873 401.763 303.952 403.608C316.325 430.466 348.123 477.589 374.958 508.844C391.172 527.735 401.875 536.516 405.088 534.598L416.151 527.523L422.586 523.178C420.943 524.269 411.192 514.864 394.883 495.862C367.952 464.566 333.541 419.168 317.91 394.43Z"
    fill="#04D484"
    fill-opacity="0.5"
  />
  <path
    opacity="0.9"
    d="M283.87 416.593C279.119 419.11 274.374 421.462 269.637 423.65C274.148 454.841 299.618 505.525 326.503 536.871C342.298 555.346 355.129 562.95 362.031 559.77L379.994 550.856L380.129 550.792C374.751 553.615 362.758 545.567 346.702 526.851C319.816 495.505 291.683 446.154 283.87 416.593Z"
    fill="#04D484"
    fill-opacity="0.5"
  />
  <path
    opacity="0.9"
    d="M249.856 433.522C245.13 435.312 240.428 436.952 235.751 438.442C232.444 472.792 251.556 526.092 278.502 557.498C293.571 575.056 307.879 582.07 318.166 578.833C323.801 577.04 331.159 574.298 336.724 572.415C327.746 575.791 313.966 568.576 298.516 550.574C271.568 519.11 249.776 466.729 249.856 433.522Z"
    fill="#04D484"
    fill-opacity="0.5"
  />
  <path
    opacity="0.9"
    d="M216.664 445.153C212.071 446.225 207.528 447.147 203.033 447.92C192.028 484.228 205.007 539.194 232.016 570.687C245.94 586.911 260.858 593.739 273.579 591.585C279.301 590.594 286.825 588.915 292.496 587.752C280.643 590.469 265.837 583.614 251.393 566.692C224.354 535.263 208.809 480.822 216.664 445.153Z"
    fill="#04D484"
    fill-opacity="0.5"
  />
  <path
    opacity="0.9"
    d="M206.429 575.541C179.35 543.979 169.811 488.466 185.151 451.517C180.802 451.867 176.523 452.068 172.313 452.12C154.005 489.203 161.125 544.839 188.207 576.387C200.468 590.671 214.698 597.576 228.329 597.415L229.392 597.4C234.863 597.309 242.11 596.794 247.54 596.549C234.097 597.548 219.419 590.68 206.429 575.541Z"
    fill="#04D484"
    fill-opacity="0.5"
  />
  <path
    opacity="0.9"
    d="M164.871 576.822C137.709 545.189 133.799 489.506 156.137 452.561C152.171 452.194 148.272 451.669 144.44 450.984C119.377 487.628 121.102 542.969 148.268 574.588C158.12 586.05 169.922 592.824 182.24 595.07L190.679 596.418L201.992 597.748C188.848 596.457 175.801 589.55 164.871 576.822Z"
    fill="#04D484"
    fill-opacity="0.5"
  />
  <path
    opacity="0.9"
    d="M127.797 570.612C100.5 538.883 101.657 484.078 130.414 448.192C126.942 447.106 123.522 445.843 120.169 444.409C89.0493 479.416 85.9622 533.517 113.262 565.233C119.442 572.559 127.304 578.435 136.163 582.346C140.811 584.312 147.128 586.582 151.851 588.352L156.112 589.739C145.054 586.138 135.181 579.469 127.797 570.612Z"
    fill="#04D484"
    fill-opacity="0.5"
  />
  <path
    opacity="0.9"
    d="M104.643 566.871C105.904 567.83 107.292 568.753 108.668 569.604L104.643 566.871Z"
    fill="#04D484"
    fill-opacity="0.5"
  />
  <path
    opacity="0.9"
    d="M109.046 438.405C106.1 436.571 103.269 434.565 100.572 432.398C64.0861 464.642 56.9042 516.547 84.4936 548.429C87.0517 551.389 89.8814 554.13 92.9454 556.615C97.101 559.807 102.458 563.608 107.295 566.923C103.33 563.991 99.7147 560.642 96.5246 556.947C68.9465 525.082 74.5476 472.003 109.046 438.405Z"
    fill="#04D484"
    fill-opacity="0.5"
  />
  <path
    opacity="0.9"
    d="M92.5021 423.132L92.3429 422.944C90.1051 420.378 88.0422 417.683 86.1678 414.878C48.139 441.116 36.5328 485.249 57.8373 517.036C61.7692 522.607 67.3696 529.722 71.6847 535.118L72.041 535.532L71.9048 535.38C43.993 503.383 53.2128 453.13 92.5021 423.132Z"
    fill="#04D484"
    fill-opacity="0.5"
  />
</svg>
